<mxfile host="app.diagrams.net" modified="2023-07-26T06:35:06.663Z" agent="Mozilla/5.0 (Windows NT 10.0; Win64; x64) AppleWebKit/537.36 (KHTML, like Gecko) Chrome/113.0.0.0 Safari/537.36" etag="1GJ-smMp3qiphMrEE8dM" version="21.6.5" type="github">
  <diagram name="Page-1" id="HZMMxwJwpEtvSUSx2gJo">
    <mxGraphModel dx="986" dy="438" grid="1" gridSize="10" guides="1" tooltips="1" connect="1" arrows="1" fold="1" page="1" pageScale="1" pageWidth="827" pageHeight="1169" math="0" shadow="0">
      <root>
        <mxCell id="0" />
        <mxCell id="1" parent="0" />
        <UserObject label="&lt;div style=&quot;font-size: 1px&quot;&gt;&lt;p style=&quot;text-align:center;margin-left:0;margin-right:0;margin-top:0px;margin-bottom:0px;text-indent:0;vertical-align:middle;direction:ltr;&quot;&gt;&lt;font style=&quot;font-size:16px;font-family:0;color:#000000;direction:ltr;letter-spacing:0px;line-height:120%;opacity:1&quot;&gt;&lt;b&gt;总体架构&lt;/b&gt;&lt;/font&gt;&lt;/p&gt;&lt;/div&gt;" tags="Background" id="Kie9rme4au2RYK9dm8sA-1">
          <mxCell style="verticalAlign=middle;align=center;overflow=width;vsdxID=1;fillColor=#FFFFFF;gradientColor=none;shape=stencil(nZBRDoQgDERP03+WHsHFe5iISyOCQdT19kIaIxq//Jtp3zTpAFaTaUYNUkwx+F6v1EYD+AUpyRkdKCYFqACrzgf9C352LfuxyWRWg1/yhT/nRE5IsZWuZtCSK8CPeI0e/hF+jV7AJM4PO7KWCyr390bSiNtEtQM=);strokeColor=#000000;spacingTop=-3;spacingBottom=-3;spacingLeft=-3;spacingRight=-3;points=[];labelBackgroundColor=none;rounded=0;html=1;whiteSpace=wrap;" vertex="1" parent="1">
            <mxGeometry x="621" y="340" width="255" height="62" as="geometry" />
          </mxCell>
        </UserObject>
        <UserObject label="&lt;div style=&quot;font-size: 1px&quot;&gt;&lt;p style=&quot;text-align:center;margin-left:0;margin-right:0;margin-top:0px;margin-bottom:0px;text-indent:0;vertical-align:middle;direction:ltr;&quot;&gt;&lt;font style=&quot;font-size:16px;font-family:0;color:#000000;direction:ltr;letter-spacing:0px;line-height:120%;opacity:1&quot;&gt;&lt;b&gt;知识图谱构建&lt;/b&gt;&lt;/font&gt;&lt;/p&gt;&lt;/div&gt;" tags="Background" id="Kie9rme4au2RYK9dm8sA-2">
          <mxCell style="verticalAlign=middle;align=center;overflow=width;vsdxID=2;fillColor=#FFFFFF;gradientColor=none;shape=stencil(nZBRDoQgDERP03+WHsHFe5iISyOCQdT19kIaIxq//Jtp3zTpAFaTaUYNUkwx+F6v1EYD+AUpyRkdKCYFqACrzgf9C352LfuxyWRWg1/yhT/nRE5IsZWuZtCSK8CPeI0e/hF+jV7AJM4PO7KWCyr390bSiNtEtQM=);strokeColor=#000000;spacingTop=-3;spacingBottom=-3;spacingLeft=-3;spacingRight=-3;points=[];labelBackgroundColor=none;rounded=0;html=1;whiteSpace=wrap;" vertex="1" parent="1">
            <mxGeometry x="401" y="460" width="285" height="63" as="geometry" />
          </mxCell>
        </UserObject>
        <UserObject label="&lt;div style=&quot;font-size: 1px&quot;&gt;&lt;p style=&quot;text-align:center;margin-left:0;margin-right:0;margin-top:0px;margin-bottom:0px;text-indent:0;vertical-align:middle;direction:ltr;&quot;&gt;&lt;font style=&quot;font-size:16px;font-family:0;color:#000000;direction:ltr;letter-spacing:0px;line-height:120%;opacity:1&quot;&gt;&lt;b&gt;知识图谱展示&lt;/b&gt;&lt;/font&gt;&lt;/p&gt;&lt;/div&gt;" tags="Background" id="Kie9rme4au2RYK9dm8sA-3">
          <mxCell style="verticalAlign=middle;align=center;overflow=width;vsdxID=3;fillColor=#FFFFFF;gradientColor=none;shape=stencil(nZBRDoQgDERP03+WHsHFe5iISyOCQdT19kIaIxq//Jtp3zTpAFaTaUYNUkwx+F6v1EYD+AUpyRkdKCYFqACrzgf9C352LfuxyWRWg1/yhT/nRE5IsZWuZtCSK8CPeI0e/hF+jV7AJM4PO7KWCyr390bSiNtEtQM=);strokeColor=#000000;spacingTop=-3;spacingBottom=-3;spacingLeft=-3;spacingRight=-3;points=[];labelBackgroundColor=none;rounded=0;html=1;whiteSpace=wrap;" vertex="1" parent="1">
            <mxGeometry x="773" y="460" width="100" height="63" as="geometry" />
          </mxCell>
        </UserObject>
        <UserObject label="&lt;div style=&quot;font-size: 1px&quot;&gt;&lt;p style=&quot;text-align:center;margin-left:0;margin-right:0;margin-top:0px;margin-bottom:0px;text-indent:0;vertical-align:middle;direction:ltr;&quot;&gt;&lt;font style=&quot;font-size:16px;font-family:0;color:#000000;direction:ltr;letter-spacing:0px;line-height:120%;opacity:1&quot;&gt;&lt;b&gt;知识图谱修改&lt;/b&gt;&lt;/font&gt;&lt;/p&gt;&lt;/div&gt;" tags="Background" id="Kie9rme4au2RYK9dm8sA-4">
          <mxCell style="verticalAlign=middle;align=center;overflow=width;vsdxID=4;fillColor=#FFFFFF;gradientColor=none;shape=stencil(nZBRDoQgDERP03+WHsHFe5iISyOCQdT19kIaIxq//Jtp3zTpAFaTaUYNUkwx+F6v1EYD+AUpyRkdKCYFqACrzgf9C352LfuxyWRWg1/yhT/nRE5IsZWuZtCSK8CPeI0e/hF+jV7AJM4PO7KWCyr390bSiNtEtQM=);strokeColor=#000000;spacingTop=-3;spacingBottom=-3;spacingLeft=-3;spacingRight=-3;points=[];labelBackgroundColor=none;rounded=0;html=1;whiteSpace=wrap;" vertex="1" parent="1">
            <mxGeometry x="901" y="460" width="96" height="63" as="geometry" />
          </mxCell>
        </UserObject>
        <UserObject label="&lt;div style=&quot;font-size: 1px&quot;&gt;&lt;p style=&quot;text-align:center;margin-left:0;margin-right:0;margin-top:0px;margin-bottom:0px;text-indent:0;vertical-align:middle;direction:ltr;&quot;&gt;&lt;font style=&quot;font-size:16px;font-family:0;color:#000000;direction:ltr;letter-spacing:0px;line-height:120%;opacity:1&quot;&gt;&lt;b&gt;知识图谱库&lt;/b&gt;&lt;/font&gt;&lt;/p&gt;&lt;/div&gt;" tags="Background" id="Kie9rme4au2RYK9dm8sA-5">
          <mxCell style="verticalAlign=middle;align=center;overflow=width;vsdxID=5;fillColor=#FFFFFF;gradientColor=none;shape=stencil(nZBRDoQgDERP03+WHsHFe5iISyOCQdT19kIaIxq//Jtp3zTpAFaTaUYNUkwx+F6v1EYD+AUpyRkdKCYFqACrzgf9C352LfuxyWRWg1/yhT/nRE5IsZWuZtCSK8CPeI0e/hF+jV7AJM4PO7KWCyr390bSiNtEtQM=);strokeColor=#000000;spacingTop=-3;spacingBottom=-3;spacingLeft=-3;spacingRight=-3;points=[];labelBackgroundColor=none;rounded=0;html=1;whiteSpace=wrap;" vertex="1" parent="1">
            <mxGeometry x="1021" y="460" width="101" height="63" as="geometry" />
          </mxCell>
        </UserObject>
        <UserObject label="&lt;div style=&quot;font-size: 1px&quot;&gt;&lt;p style=&quot;text-align:center;margin-left:0;margin-right:0;margin-top:0px;margin-bottom:0px;text-indent:0;vertical-align:middle;direction:ltr;&quot;&gt;&lt;font style=&quot;font-size:16px;font-family:0;color:#000000;direction:ltr;letter-spacing:0px;line-height:120%;opacity:1&quot;&gt;&lt;b&gt;上传模块&lt;/b&gt;&lt;/font&gt;&lt;/p&gt;&lt;/div&gt;" tags="Background" id="Kie9rme4au2RYK9dm8sA-6">
          <mxCell style="verticalAlign=middle;align=center;overflow=width;vsdxID=6;fillColor=#FFFFFF;gradientColor=none;shape=stencil(nZBRDoQgDERP03+WHsHFe5iISyOCQdT19kIaIxq//Jtp3zTpAFaTaUYNUkwx+F6v1EYD+AUpyRkdKCYFqACrzgf9C352LfuxyWRWg1/yhT/nRE5IsZWuZtCSK8CPeI0e/hF+jV7AJM4PO7KWCyr390bSiNtEtQM=);strokeColor=#000000;spacingTop=-3;spacingBottom=-3;spacingLeft=-3;spacingRight=-3;points=[];labelBackgroundColor=none;rounded=0;html=1;whiteSpace=wrap;" vertex="1" parent="1">
            <mxGeometry x="326" y="572" width="55" height="156" as="geometry" />
          </mxCell>
        </UserObject>
        <UserObject label="&lt;div style=&quot;font-size: 1px&quot;&gt;&lt;p style=&quot;text-align:center;margin-left:0;margin-right:0;margin-top:0px;margin-bottom:0px;text-indent:0;vertical-align:middle;direction:ltr;&quot;&gt;&lt;font style=&quot;font-size:16px;font-family:0;color:#000000;direction:ltr;letter-spacing:0px;line-height:120%;opacity:1&quot;&gt;&lt;b&gt;数据处理模块&lt;/b&gt;&lt;/font&gt;&lt;/p&gt;&lt;/div&gt;" tags="Background" id="Kie9rme4au2RYK9dm8sA-7">
          <mxCell style="verticalAlign=middle;align=center;overflow=width;vsdxID=7;fillColor=#FFFFFF;gradientColor=none;shape=stencil(nZBRDoQgDERP03+WHsHFe5iISyOCQdT19kIaIxq//Jtp3zTpAFaTaUYNUkwx+F6v1EYD+AUpyRkdKCYFqACrzgf9C352LfuxyWRWg1/yhT/nRE5IsZWuZtCSK8CPeI0e/hF+jV7AJM4PO7KWCyr390bSiNtEtQM=);strokeColor=#000000;spacingTop=-3;spacingBottom=-3;spacingLeft=-3;spacingRight=-3;points=[];labelBackgroundColor=none;rounded=0;html=1;whiteSpace=wrap;" vertex="1" parent="1">
            <mxGeometry x="396" y="572" width="55" height="156" as="geometry" />
          </mxCell>
        </UserObject>
        <UserObject label="&lt;div style=&quot;font-size: 1px&quot;&gt;&lt;p style=&quot;text-align:center;margin-left:0;margin-right:0;margin-top:0px;margin-bottom:0px;text-indent:0;vertical-align:middle;direction:ltr;&quot;&gt;&lt;font style=&quot;font-size:16px;font-family:0;color:#000000;direction:ltr;letter-spacing:0px;line-height:120%;opacity:1&quot;&gt;&lt;b&gt;信息抽取模块&lt;/b&gt;&lt;/font&gt;&lt;/p&gt;&lt;/div&gt;" tags="Background" id="Kie9rme4au2RYK9dm8sA-8">
          <mxCell style="verticalAlign=middle;align=center;overflow=width;vsdxID=8;fillColor=#FFFFFF;gradientColor=none;shape=stencil(nZBRDoQgDERP03+WHsHFe5iISyOCQdT19kIaIxq//Jtp3zTpAFaTaUYNUkwx+F6v1EYD+AUpyRkdKCYFqACrzgf9C352LfuxyWRWg1/yhT/nRE5IsZWuZtCSK8CPeI0e/hF+jV7AJM4PO7KWCyr390bSiNtEtQM=);strokeColor=#000000;spacingTop=-3;spacingBottom=-3;spacingLeft=-3;spacingRight=-3;points=[];labelBackgroundColor=none;rounded=0;html=1;whiteSpace=wrap;" vertex="1" parent="1">
            <mxGeometry x="469" y="572" width="55" height="156" as="geometry" />
          </mxCell>
        </UserObject>
        <UserObject label="&lt;div style=&quot;font-size: 1px&quot;&gt;&lt;p style=&quot;text-align:center;margin-left:0;margin-right:0;margin-top:0px;margin-bottom:0px;text-indent:0;vertical-align:middle;direction:ltr;&quot;&gt;&lt;font style=&quot;font-size:16px;font-family:0;color:#000000;direction:ltr;letter-spacing:0px;line-height:120%;opacity:1&quot;&gt;&lt;b&gt;存储模块&lt;/b&gt;&lt;/font&gt;&lt;/p&gt;&lt;/div&gt;" tags="Background" id="Kie9rme4au2RYK9dm8sA-9">
          <mxCell style="verticalAlign=middle;align=center;overflow=width;vsdxID=9;fillColor=#FFFFFF;gradientColor=none;shape=stencil(nZBRDoQgDERP03+WHsHFe5iISyOCQdT19kIaIxq//Jtp3zTpAFaTaUYNUkwx+F6v1EYD+AUpyRkdKCYFqACrzgf9C352LfuxyWRWg1/yhT/nRE5IsZWuZtCSK8CPeI0e/hF+jV7AJM4PO7KWCyr390bSiNtEtQM=);strokeColor=#000000;spacingTop=-3;spacingBottom=-3;spacingLeft=-3;spacingRight=-3;points=[];labelBackgroundColor=none;rounded=0;html=1;whiteSpace=wrap;" vertex="1" parent="1">
            <mxGeometry x="542" y="572" width="55" height="156" as="geometry" />
          </mxCell>
        </UserObject>
        <UserObject label="&lt;div style=&quot;font-size: 1px&quot;&gt;&lt;p style=&quot;text-align:center;margin-left:0;margin-right:0;margin-top:0px;margin-bottom:0px;text-indent:0;vertical-align:middle;direction:ltr;&quot;&gt;&lt;font style=&quot;font-size:16px;font-family:0;color:#000000;direction:ltr;letter-spacing:0px;line-height:120%;opacity:1&quot;&gt;&lt;b&gt;展示模块&lt;/b&gt;&lt;/font&gt;&lt;/p&gt;&lt;/div&gt;" tags="Background" id="Kie9rme4au2RYK9dm8sA-10">
          <mxCell style="verticalAlign=middle;align=center;overflow=width;vsdxID=10;fillColor=#FFFFFF;gradientColor=none;shape=stencil(nZBRDoQgDERP03+WHsHFe5iISyOCQdT19kIaIxq//Jtp3zTpAFaTaUYNUkwx+F6v1EYD+AUpyRkdKCYFqACrzgf9C352LfuxyWRWg1/yhT/nRE5IsZWuZtCSK8CPeI0e/hF+jV7AJM4PO7KWCyr390bSiNtEtQM=);strokeColor=#000000;spacingTop=-3;spacingBottom=-3;spacingLeft=-3;spacingRight=-3;points=[];labelBackgroundColor=none;rounded=0;html=1;whiteSpace=wrap;" vertex="1" parent="1">
            <mxGeometry x="795" y="572" width="55" height="156" as="geometry" />
          </mxCell>
        </UserObject>
        <UserObject label="&lt;div style=&quot;font-size: 1px&quot;&gt;&lt;p style=&quot;text-align:center;margin-left:0;margin-right:0;margin-top:0px;margin-bottom:0px;text-indent:0;vertical-align:middle;direction:ltr;&quot;&gt;&lt;font style=&quot;font-size:16px;font-family:0;color:#000000;direction:ltr;letter-spacing:0px;line-height:120%;opacity:1&quot;&gt;&lt;b&gt;知识图谱增删改查模块&lt;/b&gt;&lt;/font&gt;&lt;/p&gt;&lt;/div&gt;" tags="Background" id="Kie9rme4au2RYK9dm8sA-11">
          <mxCell style="verticalAlign=middle;align=center;overflow=width;vsdxID=11;fillColor=#FFFFFF;gradientColor=none;shape=stencil(nZBRDoQgDERP03+WHsHFe5iISyOCQdT19kIaIxq//Jtp3zTpAFaTaUYNUkwx+F6v1EYD+AUpyRkdKCYFqACrzgf9C352LfuxyWRWg1/yhT/nRE5IsZWuZtCSK8CPeI0e/hF+jV7AJM4PO7KWCyr390bSiNtEtQM=);strokeColor=#000000;spacingTop=-3;spacingBottom=-3;spacingLeft=-3;spacingRight=-3;points=[];labelBackgroundColor=none;rounded=0;html=1;whiteSpace=wrap;" vertex="1" parent="1">
            <mxGeometry x="921" y="571" width="55" height="156" as="geometry" />
          </mxCell>
        </UserObject>
        <UserObject label="&lt;div style=&quot;font-size: 1px&quot;&gt;&lt;p style=&quot;text-align:center;margin-left:0;margin-right:0;margin-top:0px;margin-bottom:0px;text-indent:0;vertical-align:middle;direction:ltr;&quot;&gt;&lt;font style=&quot;font-size:16px;font-family:0;color:#000000;direction:ltr;letter-spacing:0px;line-height:120%;opacity:1&quot;&gt;&lt;b&gt;数据库展示模块&lt;/b&gt;&lt;/font&gt;&lt;/p&gt;&lt;/div&gt;" tags="Background" id="Kie9rme4au2RYK9dm8sA-12">
          <mxCell style="verticalAlign=middle;align=center;overflow=width;vsdxID=12;fillColor=#FFFFFF;gradientColor=none;shape=stencil(nZBRDoQgDERP03+WHsHFe5iISyOCQdT19kIaIxq//Jtp3zTpAFaTaUYNUkwx+F6v1EYD+AUpyRkdKCYFqACrzgf9C352LfuxyWRWg1/yhT/nRE5IsZWuZtCSK8CPeI0e/hF+jV7AJM4PO7KWCyr390bSiNtEtQM=);strokeColor=#000000;spacingTop=-3;spacingBottom=-3;spacingLeft=-3;spacingRight=-3;points=[];labelBackgroundColor=none;rounded=0;html=1;whiteSpace=wrap;" vertex="1" parent="1">
            <mxGeometry x="1043" y="566" width="55" height="156" as="geometry" />
          </mxCell>
        </UserObject>
        <UserObject label="&lt;div style=&quot;font-size: 1px&quot;&gt;&lt;p style=&quot;text-align:center;margin-left:0;margin-right:0;margin-top:0px;margin-bottom:0px;text-indent:0;vertical-align:middle;direction:ltr;&quot;&gt;&lt;font style=&quot;font-size:16px;font-family:0;color:#000000;direction:ltr;letter-spacing:0px;line-height:120%;opacity:1&quot;&gt;&lt;b&gt;类案推荐模块&lt;/b&gt;&lt;/font&gt;&lt;/p&gt;&lt;/div&gt;" tags="Background" id="Kie9rme4au2RYK9dm8sA-13">
          <mxCell style="verticalAlign=middle;align=center;overflow=width;vsdxID=13;fillColor=#FFFFFF;gradientColor=none;shape=stencil(nZBRDoQgDERP03+WHsHFe5iISyOCQdT19kIaIxq//Jtp3zTpAFaTaUYNUkwx+F6v1EYD+AUpyRkdKCYFqACrzgf9C352LfuxyWRWg1/yhT/nRE5IsZWuZtCSK8CPeI0e/hF+jV7AJM4PO7KWCyr390bSiNtEtQM=);strokeColor=#000000;spacingTop=-3;spacingBottom=-3;spacingLeft=-3;spacingRight=-3;points=[];labelBackgroundColor=none;rounded=0;html=1;whiteSpace=wrap;" vertex="1" parent="1">
            <mxGeometry x="621" y="572" width="55" height="156" as="geometry" />
          </mxCell>
        </UserObject>
        <UserObject label="&lt;div style=&quot;font-size: 1px&quot;&gt;&lt;p style=&quot;text-align:center;margin-left:0;margin-right:0;margin-top:0px;margin-bottom:0px;text-indent:0;vertical-align:middle;direction:ltr;&quot;&gt;&lt;font style=&quot;font-size:16px;font-family:0;color:#000000;direction:ltr;letter-spacing:0px;line-height:120%;opacity:1&quot;&gt;&lt;b&gt;摘要生成模块&lt;/b&gt;&lt;/font&gt;&lt;/p&gt;&lt;/div&gt;" tags="Background" id="Kie9rme4au2RYK9dm8sA-14">
          <mxCell style="verticalAlign=middle;align=center;overflow=width;vsdxID=14;fillColor=#FFFFFF;gradientColor=none;shape=stencil(nZBRDoQgDERP03+WHsHFe5iISyOCQdT19kIaIxq//Jtp3zTpAFaTaUYNUkwx+F6v1EYD+AUpyRkdKCYFqACrzgf9C352LfuxyWRWg1/yhT/nRE5IsZWuZtCSK8CPeI0e/hF+jV7AJM4PO7KWCyr390bSiNtEtQM=);strokeColor=#000000;spacingTop=-3;spacingBottom=-3;spacingLeft=-3;spacingRight=-3;points=[];labelBackgroundColor=none;rounded=0;html=1;whiteSpace=wrap;" vertex="1" parent="1">
            <mxGeometry x="706" y="572" width="55" height="156" as="geometry" />
          </mxCell>
        </UserObject>
        <UserObject label="" tags="Background" id="Kie9rme4au2RYK9dm8sA-15">
          <mxCell style="vsdxID=15;edgeStyle=none;startArrow=none;endArrow=block;startSize=5;endSize=5;strokeWidth=2;spacingTop=0;spacingBottom=0;spacingLeft=0;spacingRight=0;verticalAlign=middle;html=1;labelBackgroundColor=#ffffff;rounded=0;exitX=0.5017543859649123;exitY=1;exitDx=0;exitDy=0;exitPerimeter=0;entryX=0.509090909090909;entryY=0;entryDx=0;entryDy=0;entryPerimeter=0;" edge="1" parent="1" source="Kie9rme4au2RYK9dm8sA-2" target="Kie9rme4au2RYK9dm8sA-9">
            <mxGeometry relative="1" as="geometry">
              <mxPoint x="-14" y="126" as="offset" />
              <Array as="points">
                <mxPoint x="544" y="547.52" />
                <mxPoint x="570.01" y="547.52" />
              </Array>
            </mxGeometry>
          </mxCell>
        </UserObject>
        <UserObject label="" tags="Background" id="Kie9rme4au2RYK9dm8sA-16">
          <mxCell style="vsdxID=16;edgeStyle=none;startArrow=none;endArrow=block;startSize=5;endSize=5;strokeWidth=2;spacingTop=0;spacingBottom=0;spacingLeft=0;spacingRight=0;verticalAlign=middle;html=1;labelBackgroundColor=#ffffff;rounded=0;exitX=0.5;exitY=1;exitDx=0;exitDy=0;exitPerimeter=0;entryX=0.509090909090909;entryY=0;entryDx=0;entryDy=0;entryPerimeter=0;" edge="1" parent="1" source="Kie9rme4au2RYK9dm8sA-3" target="Kie9rme4au2RYK9dm8sA-10">
            <mxGeometry relative="1" as="geometry">
              <mxPoint y="125" as="offset" />
              <Array as="points">
                <mxPoint x="823" y="547.52" />
                <mxPoint x="823" y="547.52" />
              </Array>
            </mxGeometry>
          </mxCell>
        </UserObject>
        <UserObject label="" tags="Background" id="Kie9rme4au2RYK9dm8sA-17">
          <mxCell style="vsdxID=17;edgeStyle=none;startArrow=none;endArrow=block;startSize=5;endSize=5;strokeWidth=2;spacingTop=0;spacingBottom=0;spacingLeft=0;spacingRight=0;verticalAlign=middle;html=1;labelBackgroundColor=#ffffff;rounded=0;exitX=0.5017543859649123;exitY=1;exitDx=0;exitDy=0;exitPerimeter=0;entryX=0.509090909090909;entryY=0;entryDx=0;entryDy=0;entryPerimeter=0;" edge="1" parent="1" source="Kie9rme4au2RYK9dm8sA-2" target="Kie9rme4au2RYK9dm8sA-13">
            <mxGeometry relative="1" as="geometry">
              <mxPoint x="-53" y="126" as="offset" />
              <Array as="points">
                <mxPoint x="544" y="547.52" />
                <mxPoint x="649.05" y="547.52" />
              </Array>
            </mxGeometry>
          </mxCell>
        </UserObject>
        <UserObject label="" tags="Background" id="Kie9rme4au2RYK9dm8sA-18">
          <mxCell style="vsdxID=18;edgeStyle=none;startArrow=none;endArrow=block;startSize=5;endSize=5;strokeWidth=2;spacingTop=0;spacingBottom=0;spacingLeft=0;spacingRight=0;verticalAlign=middle;html=1;labelBackgroundColor=#ffffff;rounded=0;exitX=0.49504950495049505;exitY=1;exitDx=0;exitDy=0;exitPerimeter=0;entryX=0.509090909090909;entryY=0;entryDx=0;entryDy=0;entryPerimeter=0;" edge="1" parent="1" source="Kie9rme4au2RYK9dm8sA-5" target="Kie9rme4au2RYK9dm8sA-12">
            <mxGeometry relative="1" as="geometry">
              <mxPoint y="123" as="offset" />
              <Array as="points">
                <mxPoint x="1071" y="544.79" />
                <mxPoint x="1071" y="544.79" />
              </Array>
            </mxGeometry>
          </mxCell>
        </UserObject>
        <UserObject label="" tags="Background" id="Kie9rme4au2RYK9dm8sA-19">
          <mxCell style="vsdxID=19;edgeStyle=none;startArrow=none;endArrow=block;startSize=5;endSize=5;strokeWidth=2;spacingTop=0;spacingBottom=0;spacingLeft=0;spacingRight=0;verticalAlign=middle;html=1;labelBackgroundColor=#ffffff;rounded=0;exitX=0.5017543859649123;exitY=1;exitDx=0;exitDy=0;exitPerimeter=0;entryX=0.509090909090909;entryY=0;entryDx=0;entryDy=0;entryPerimeter=0;" edge="1" parent="1" source="Kie9rme4au2RYK9dm8sA-2" target="Kie9rme4au2RYK9dm8sA-8">
            <mxGeometry relative="1" as="geometry">
              <mxPoint x="23" y="126" as="offset" />
              <Array as="points">
                <mxPoint x="544" y="547.52" />
                <mxPoint x="497.06" y="547.52" />
              </Array>
            </mxGeometry>
          </mxCell>
        </UserObject>
        <UserObject label="" tags="Background" id="Kie9rme4au2RYK9dm8sA-20">
          <mxCell style="vsdxID=20;edgeStyle=none;startArrow=none;endArrow=block;startSize=5;endSize=5;strokeWidth=2;spacingTop=0;spacingBottom=0;spacingLeft=0;spacingRight=0;verticalAlign=middle;html=1;labelBackgroundColor=#ffffff;rounded=0;exitX=0.5;exitY=1;exitDx=0;exitDy=0;exitPerimeter=0;entryX=0.509090909090909;entryY=0;entryDx=0;entryDy=0;entryPerimeter=0;" edge="1" parent="1" source="Kie9rme4au2RYK9dm8sA-4" target="Kie9rme4au2RYK9dm8sA-11">
            <mxGeometry relative="1" as="geometry">
              <mxPoint y="125" as="offset" />
              <Array as="points">
                <mxPoint x="949" y="547.01" />
                <mxPoint x="949" y="547.01" />
              </Array>
            </mxGeometry>
          </mxCell>
        </UserObject>
        <UserObject label="" tags="Background" id="Kie9rme4au2RYK9dm8sA-21">
          <mxCell style="vsdxID=21;edgeStyle=none;startArrow=none;endArrow=block;startSize=5;endSize=5;strokeWidth=2;spacingTop=0;spacingBottom=0;spacingLeft=0;spacingRight=0;verticalAlign=middle;html=1;labelBackgroundColor=#ffffff;rounded=0;exitX=0.5019607843137255;exitY=1;exitDx=0;exitDy=0;exitPerimeter=0;entryX=0.49504950495049505;entryY=0;entryDx=0;entryDy=0;entryPerimeter=0;" edge="1" parent="1" source="Kie9rme4au2RYK9dm8sA-1" target="Kie9rme4au2RYK9dm8sA-5">
            <mxGeometry relative="1" as="geometry">
              <mxPoint x="-162" y="130" as="offset" />
              <Array as="points">
                <mxPoint x="749" y="430.68" />
                <mxPoint x="1071.51" y="430.68" />
              </Array>
            </mxGeometry>
          </mxCell>
        </UserObject>
        <UserObject label="" tags="Background" id="Kie9rme4au2RYK9dm8sA-22">
          <mxCell style="vsdxID=22;edgeStyle=none;startArrow=none;endArrow=block;startSize=5;endSize=5;strokeWidth=2;spacingTop=0;spacingBottom=0;spacingLeft=0;spacingRight=0;verticalAlign=middle;html=1;labelBackgroundColor=#ffffff;rounded=0;exitX=0.5017543859649123;exitY=1;exitDx=0;exitDy=0;exitPerimeter=0;entryX=0.509090909090909;entryY=0;entryDx=0;entryDy=0;entryPerimeter=0;" edge="1" parent="1" source="Kie9rme4au2RYK9dm8sA-2" target="Kie9rme4au2RYK9dm8sA-14">
            <mxGeometry relative="1" as="geometry">
              <mxPoint x="-96" y="126" as="offset" />
              <Array as="points">
                <mxPoint x="544" y="547.52" />
                <mxPoint x="734.05" y="547.52" />
              </Array>
            </mxGeometry>
          </mxCell>
        </UserObject>
        <UserObject label="" tags="Background" id="Kie9rme4au2RYK9dm8sA-23">
          <mxCell style="vsdxID=23;edgeStyle=none;startArrow=none;endArrow=block;startSize=5;endSize=5;strokeWidth=2;spacingTop=0;spacingBottom=0;spacingLeft=0;spacingRight=0;verticalAlign=middle;html=1;labelBackgroundColor=#ffffff;rounded=0;exitX=0.5019607843137255;exitY=1;exitDx=0;exitDy=0;exitPerimeter=0;entryX=0.5017543859649123;entryY=0;entryDx=0;entryDy=0;entryPerimeter=0;" edge="1" parent="1" source="Kie9rme4au2RYK9dm8sA-1" target="Kie9rme4au2RYK9dm8sA-2">
            <mxGeometry relative="1" as="geometry">
              <mxPoint x="102" y="130" as="offset" />
              <Array as="points">
                <mxPoint x="749" y="430.68" />
                <mxPoint x="544.07" y="430.68" />
              </Array>
            </mxGeometry>
          </mxCell>
        </UserObject>
        <UserObject label="" tags="Background" id="Kie9rme4au2RYK9dm8sA-24">
          <mxCell style="vsdxID=24;edgeStyle=none;startArrow=none;endArrow=block;startSize=5;endSize=5;strokeWidth=2;spacingTop=0;spacingBottom=0;spacingLeft=0;spacingRight=0;verticalAlign=middle;html=1;labelBackgroundColor=#ffffff;rounded=0;exitX=0.5017543859649123;exitY=1;exitDx=0;exitDy=0;exitPerimeter=0;entryX=0.509090909090909;entryY=0;entryDx=0;entryDy=0;entryPerimeter=0;" edge="1" parent="1" source="Kie9rme4au2RYK9dm8sA-2" target="Kie9rme4au2RYK9dm8sA-6">
            <mxGeometry relative="1" as="geometry">
              <mxPoint x="94" y="126" as="offset" />
              <Array as="points">
                <mxPoint x="544" y="547.52" />
                <mxPoint x="354.4" y="547.52" />
              </Array>
            </mxGeometry>
          </mxCell>
        </UserObject>
        <UserObject label="" tags="Background" id="Kie9rme4au2RYK9dm8sA-25">
          <mxCell style="vsdxID=25;edgeStyle=none;startArrow=none;endArrow=block;startSize=5;endSize=5;strokeWidth=2;spacingTop=0;spacingBottom=0;spacingLeft=0;spacingRight=0;verticalAlign=middle;html=1;labelBackgroundColor=#ffffff;rounded=0;exitX=0.5019607843137255;exitY=1;exitDx=0;exitDy=0;exitPerimeter=0;entryX=0.5;entryY=0;entryDx=0;entryDy=0;entryPerimeter=0;" edge="1" parent="1" source="Kie9rme4au2RYK9dm8sA-1" target="Kie9rme4au2RYK9dm8sA-4">
            <mxGeometry relative="1" as="geometry">
              <mxPoint x="-101" y="130" as="offset" />
              <Array as="points">
                <mxPoint x="749" y="430.68" />
                <mxPoint x="949.15" y="430.68" />
              </Array>
            </mxGeometry>
          </mxCell>
        </UserObject>
        <UserObject label="" tags="Background" id="Kie9rme4au2RYK9dm8sA-26">
          <mxCell style="vsdxID=26;edgeStyle=none;startArrow=none;endArrow=block;startSize=5;endSize=5;strokeWidth=2;spacingTop=0;spacingBottom=0;spacingLeft=0;spacingRight=0;verticalAlign=middle;html=1;labelBackgroundColor=#ffffff;rounded=0;exitX=0.5019607843137255;exitY=1;exitDx=0;exitDy=0;exitPerimeter=0;entryX=0.5;entryY=0;entryDx=0;entryDy=0;entryPerimeter=0;" edge="1" parent="1" source="Kie9rme4au2RYK9dm8sA-1" target="Kie9rme4au2RYK9dm8sA-3">
            <mxGeometry relative="1" as="geometry">
              <mxPoint x="-38" y="130" as="offset" />
              <Array as="points">
                <mxPoint x="749" y="430.68" />
                <mxPoint x="823.15" y="430.68" />
              </Array>
            </mxGeometry>
          </mxCell>
        </UserObject>
        <UserObject label="" tags="Background" id="Kie9rme4au2RYK9dm8sA-27">
          <mxCell style="vsdxID=27;edgeStyle=none;startArrow=none;endArrow=block;startSize=5;endSize=5;strokeWidth=2;spacingTop=0;spacingBottom=0;spacingLeft=0;spacingRight=0;verticalAlign=middle;html=1;labelBackgroundColor=#ffffff;rounded=0;exitX=0.5017543859649123;exitY=1;exitDx=0;exitDy=0;exitPerimeter=0;entryX=0.509090909090909;entryY=0;entryDx=0;entryDy=0;entryPerimeter=0;" edge="1" parent="1" source="Kie9rme4au2RYK9dm8sA-2" target="Kie9rme4au2RYK9dm8sA-7">
            <mxGeometry relative="1" as="geometry">
              <mxPoint x="59" y="126" as="offset" />
              <Array as="points">
                <mxPoint x="544" y="547.52" />
                <mxPoint x="424.12" y="547.52" />
              </Array>
            </mxGeometry>
          </mxCell>
        </UserObject>
      </root>
    </mxGraphModel>
  </diagram>
</mxfile>
